<svg width="49" height="60" viewBox="0 0 49 60" fill="none" xmlns="http://www.w3.org/2000/svg">
<path d="M15.3949 50.405C12.4299 47.73 11.5649 42.115 12.7999 38.045C14.9399 40.61 17.9074 41.425 20.9799 41.8825C25.7224 42.59 30.3799 42.325 34.7849 40.1875C35.2899 39.9425 35.7549 39.615 36.3049 39.2875C36.7199 40.47 36.8274 41.6625 36.6824 42.88C36.3324 45.8425 34.8374 48.13 32.4624 49.865C31.5124 50.5575 30.5074 51.1775 29.5249 51.8325C26.5124 53.8425 25.6974 56.2 26.8299 59.63L26.9399 60C25.4984 59.3814 24.2738 58.3475 23.4224 57.03C22.5366 55.6823 22.0639 54.1052 22.0624 52.4925C22.0524 51.6925 22.0524 50.8875 21.9424 50.0975C21.6774 48.175 20.7624 47.315 19.0399 47.265C17.2724 47.215 15.8724 48.2925 15.5024 49.99C15.4724 50.1225 15.4324 50.25 15.3899 50.4025L15.3949 50.405ZM0.492432 39.2925C0.492432 39.2925 8.59243 35.355 16.7174 35.355L22.8449 16.4425C23.0749 15.5275 23.7449 14.9075 24.4999 14.9075C25.2549 14.9075 25.9249 15.5275 26.1549 16.4425L32.2799 35.355C41.9049 35.355 48.5074 39.2925 48.5074 39.2925L34.7199 1.8175C34.3249 0.7125 33.6574 0 32.7574 0H16.2424C15.3424 0 14.7049 0.7125 14.2824 1.8175L0.492432 39.2925Z" fill="white"/>
</svg>
