<svg width="41" height="60" viewBox="0 0 41 60" fill="none" xmlns="http://www.w3.org/2000/svg">
<path fill-rule="evenodd" clip-rule="evenodd" d="M11.5374 0C5.41991 0 0.499915 5.1325 0.499915 11.42C0.499915 15.2425 2.31992 18.6375 5.11741 20.71C3.67561 21.7902 2.50694 23.1932 1.70508 24.8065C0.903211 26.4198 0.490462 28.1985 0.499915 30C0.499915 33.825 2.31992 37.2175 5.11741 39.29C3.67561 40.3702 2.50694 41.7732 1.70508 43.3865C0.903211 44.9998 0.490462 46.7785 0.499915 48.58C0.499915 54.8675 5.41991 60 11.5374 60C17.6524 60 22.5749 54.8675 22.5749 48.58V38.925C24.5082 40.537 26.9452 41.4207 29.4624 41.4225C35.5799 41.42 40.4999 36.2875 40.4999 30C40.51 28.1984 40.0975 26.4194 39.2956 24.8061C38.4936 23.1927 37.3247 21.7898 35.8824 20.71C37.3242 19.6298 38.4929 18.2268 39.2948 16.6135C40.0966 15.0002 40.5094 13.2215 40.4999 11.42C40.4999 5.1325 35.5799 0 29.4624 0H11.5374ZM4.64741 11.42C4.64741 7.4425 7.75241 4.2575 11.5374 4.2575H18.4249V18.5825H11.5374C7.75241 18.5825 4.64741 15.395 4.64741 11.42ZM29.4624 18.58H22.5749V4.255H29.4624C33.2499 4.255 36.3524 7.4425 36.3524 11.42C36.3524 15.395 33.2499 18.58 29.4624 18.58ZM4.64991 30C4.64991 26.025 7.75492 22.8375 11.5399 22.8375H18.4274V37.1625H11.5374C7.74991 37.1625 4.64991 33.975 4.64991 30ZM22.5724 30C22.5724 26.025 25.6774 22.8375 29.4624 22.8375C33.2499 22.8375 36.3524 26.0225 36.3524 30C36.3524 33.975 33.2499 37.1625 29.4624 37.1625C25.6774 37.1625 22.5724 33.9775 22.5724 30ZM4.64991 48.58C4.64991 44.605 7.75492 41.42 11.5399 41.42H18.4274V48.58C18.4274 52.5575 15.3274 55.7425 11.5399 55.7425C7.75492 55.7425 4.64991 52.5575 4.64991 48.58Z" fill="white"/>
</svg>
