<svg width="55" height="50" viewBox="0 0 55 50" fill="none" xmlns="http://www.w3.org/2000/svg">
<path d="M27.5 20.2751C30.075 20.2751 32.175 22.3751 32.175 25.0001C32.175 27.5001 30.075 29.6251 27.5 29.6251C24.925 29.6251 22.825 27.5001 22.825 25.0001C22.825 22.3751 24.925 20.2751 27.5 20.2751ZM15.925 45.0001C17.5 45.9501 20.95 44.5001 24.925 40.7501C23.625 39.2751 22.35 37.6751 21.15 36.0001C19.1354 35.8073 17.1325 35.5069 15.15 35.1001C13.875 40.4501 14.35 44.1251 15.925 45.0001ZM17.7 30.6501L16.975 29.3751C16.7 30.1001 16.425 30.8251 16.25 31.5251C16.925 31.6751 17.675 31.8001 18.45 31.9251L17.7 30.6501ZM34.05 28.7501L36.075 25.0001L34.05 21.2501C33.3 19.9251 32.5 18.7501 31.775 17.5751C30.425 17.5001 29 17.5001 27.5 17.5001C26 17.5001 24.575 17.5001 23.225 17.5751C22.5 18.7501 21.7 19.9251 20.95 21.2501L18.925 25.0001L20.95 28.7501C21.7 30.0751 22.5 31.2501 23.225 32.4251C24.575 32.5001 26 32.5001 27.5 32.5001C29 32.5001 30.425 32.5001 31.775 32.4251C32.5 31.2501 33.3 30.0751 34.05 28.7501ZM27.5 11.9501C27.025 12.5001 26.525 13.0751 26.025 13.7501H28.975C28.475 13.0751 27.975 12.5001 27.5 11.9501ZM27.5 38.0501C27.975 37.5001 28.475 36.9251 28.975 36.2501H26.025C26.525 36.9251 27.025 37.5001 27.5 38.0501ZM39.05 5.0001C37.5 4.0501 34.05 5.5001 30.075 9.2501C31.375 10.7251 32.65 12.3251 33.85 14.0001C35.9 14.2001 37.925 14.5001 39.85 14.9001C41.125 9.5501 40.65 5.8751 39.05 5.0001ZM37.3 19.3501L38.025 20.6251C38.3 19.9001 38.575 19.1751 38.75 18.4751C38.075 18.3251 37.325 18.2001 36.55 18.0751L37.3 19.3501ZM40.925 1.7251C44.6 3.8251 45 9.3501 43.45 15.8001C49.8 17.6751 54.375 20.7751 54.375 25.0001C54.375 29.2251 49.8 32.3251 43.45 34.2001C45 40.6501 44.6 46.1751 40.925 48.2751C37.275 50.3751 32.3 47.9751 27.5 43.4001C22.7 47.9751 17.725 50.3751 14.05 48.2751C10.4 46.1751 10 40.6501 11.55 34.2001C5.2 32.3251 0.625 29.2251 0.625 25.0001C0.625 20.7751 5.2 17.6751 11.55 15.8001C10 9.3501 10.4 3.8251 14.05 1.7251C17.725 -0.374898 22.7 2.0251 27.5 6.6001C32.3 2.0251 37.275 -0.374898 40.925 1.7251ZM40.2 25.0001C41.05 26.8751 41.8 28.7501 42.425 30.6501C47.675 29.0751 50.625 26.8251 50.625 25.0001C50.625 23.1751 47.675 20.9251 42.425 19.3501C41.8 21.2501 41.05 23.1251 40.2 25.0001ZM14.8 25.0001C13.95 23.1251 13.2 21.2501 12.575 19.3501C7.325 20.9251 4.375 23.1751 4.375 25.0001C4.375 26.8251 7.325 29.0751 12.575 30.6501C13.2 28.7501 13.95 26.8751 14.8 25.0001ZM37.3 30.6501L36.55 31.9251C37.325 31.8001 38.075 31.6751 38.75 31.5251C38.575 30.8251 38.3 30.1001 38.025 29.3751L37.3 30.6501ZM30.075 40.7501C34.05 44.5001 37.5 45.9501 39.05 45.0001C40.65 44.1251 41.125 40.4501 39.85 35.1001C37.925 35.5001 35.9 35.8001 33.85 36.0001C32.65 37.6751 31.375 39.2751 30.075 40.7501ZM17.7 19.3501L18.45 18.0751C17.675 18.2001 16.925 18.3251 16.25 18.4751C16.425 19.1751 16.7 19.9001 16.975 20.6251L17.7 19.3501ZM24.925 9.2501C20.95 5.5001 17.5 4.0501 15.925 5.0001C14.35 5.8751 13.875 9.5501 15.15 14.9001C17.1325 14.4933 19.1354 14.1929 21.15 14.0001C22.35 12.3251 23.625 10.7251 24.925 9.2501Z" fill="white"/>
</svg>
