<svg width="54" height="60" viewBox="0 0 54 60" fill="none" xmlns="http://www.w3.org/2000/svg">
<path fill-rule="evenodd" clip-rule="evenodd" d="M49.5 16.875V41.25H45.75V16.875H38.25C36.7582 16.875 35.3274 16.2824 34.2725 15.2275C33.2176 14.1726 32.625 12.7418 32.625 11.25V3.75H12C11.0054 3.75 10.0516 4.14509 9.34835 4.84835C8.64509 5.55161 8.25 6.50544 8.25 7.5V41.25H4.5V7.5C4.5 5.51088 5.29018 3.60322 6.6967 2.1967C8.10322 0.790176 10.0109 0 12 0L32.625 0L49.5 16.875ZM12.99 44.4375V59.4338H10.0238V53.0063H3.7125V59.4338H0.75V44.4375H3.71625V50.535H10.0238V44.4375H12.99ZM21.4313 46.92V59.4338H18.4538V46.92H14.205V44.4375H25.695V46.92H21.4313ZM29.5913 59.4338V49.4588H29.7338L33.3038 57.555H35.2388L38.7863 49.455H38.9288V59.4338H41.61V44.4375H38.61L34.335 54.1725H34.2375L29.9625 44.4375H26.9438V59.4338H29.5913ZM47.2538 56.9062H53.6138V59.4338H44.2875V44.4375H47.25V56.9062H47.2538Z" fill="white"/>
</svg>
