<svg width="61" height="60" viewBox="0 0 61 60" fill="none" xmlns="http://www.w3.org/2000/svg">
<path d="M49.8743 0.751961H11.1237C9.72782 0.750234 8.34533 1.02389 7.05539 1.55727C5.76545 2.09065 4.5934 2.87326 3.60638 3.86028C2.61935 4.84731 1.83674 6.01935 1.30336 7.30929C0.769989 8.59923 0.496328 9.98172 0.498055 11.3776V48.6226C0.496328 50.0184 0.769989 51.4009 1.30336 52.6909C1.83674 53.9808 2.61935 55.1529 3.60638 56.1399C4.5934 57.1269 5.76545 57.9095 7.05539 58.4429C8.34533 58.9763 9.72782 59.2499 11.1237 59.2482H49.8743C51.2702 59.2499 52.6527 58.9763 53.9426 58.4429C55.2325 57.9095 56.4046 57.1269 57.3916 56.1399C58.3786 55.1529 59.1612 53.9808 59.6946 52.6909C60.228 51.4009 60.5017 50.0184 60.4999 48.6226V11.3776C60.5017 9.98172 60.228 8.59923 59.6946 7.30929C59.1612 6.01935 58.3786 4.84731 57.3916 3.86028C56.4046 2.87326 55.2325 2.09065 53.9426 1.55727C52.6527 1.02389 51.2702 0.750234 49.8743 0.751961ZM57.9706 47.6476C57.9775 48.8397 57.7487 50.0215 57.2974 51.1249C56.8461 52.2284 56.1811 53.2317 55.3407 54.0773C54.5004 54.9229 53.5012 55.5941 52.4005 56.0522C51.2999 56.5104 50.1196 56.7465 48.9274 56.747H12.0724C9.66715 56.7435 7.36139 55.7865 5.6606 54.0857C3.95981 52.3849 3.00278 50.0791 2.9993 47.6738V12.3245C3.00278 9.91918 3.95981 7.61342 5.6606 5.91263C7.36139 4.21184 9.66715 3.25481 12.0724 3.25134H48.8974C51.3036 3.25183 53.6111 4.20791 55.3126 5.90934C57.014 7.61077 57.9701 9.91827 57.9706 12.3245V47.6476ZM24.2206 28.1251L31.2237 41.5726C31.3512 41.777 31.2743 41.972 31.0756 41.972H26.7199C26.4481 41.972 26.3206 41.9045 26.2024 41.6495C24.6031 38.3495 22.9699 35.0495 21.2993 31.5038H21.2524C19.7151 34.9181 18.1293 38.3103 16.4956 41.6795C16.3812 41.8745 16.2537 41.9513 16.0474 41.9513H11.9243C11.6712 41.9513 11.6524 41.747 11.7799 41.6007L18.6256 28.5526L12.0049 15.3507C11.8474 15.1463 12.0049 14.9982 12.1493 14.9982H16.4468C16.6999 14.9982 16.7993 15.0488 16.8968 15.2701C18.4923 18.5962 20.0518 21.9396 21.5749 25.2995H21.6218C23.0768 21.9995 24.6799 18.572 26.2212 15.3001C26.3487 15.0957 26.4256 14.9682 26.6712 14.9682H30.6931C30.8974 14.9682 30.9762 15.1257 30.8506 15.3207L24.2206 28.1251ZM32.4518 32.1976C32.4518 26.3776 36.3199 21.8251 42.4718 21.8251C42.9987 21.8251 43.2724 21.8251 43.7712 21.8757V15.2551C43.7712 15.0976 43.8968 15.0001 44.0243 15.0001H47.9693C48.1737 15.0001 48.2243 15.077 48.2243 15.1951V38.1545C48.2243 38.8276 48.2243 39.677 48.3518 40.5938C48.3518 40.7513 48.3012 40.7982 48.1474 40.8788C46.1484 41.8287 43.9632 42.3225 41.7499 42.3245C36.3199 42.3526 32.4518 39.0038 32.4518 32.1976ZM43.7731 25.8001C43.3113 25.6236 42.8198 25.5377 42.3256 25.547C39.1737 25.547 36.9762 27.977 36.9762 32.0026C36.9762 36.602 39.2206 38.447 42.0537 38.447C42.6481 38.447 43.3043 38.3795 43.7731 38.1751V25.8001Z" fill="white"/>
</svg>
