<svg width="60" height="60" viewBox="0 0 60 60" fill="none" xmlns="http://www.w3.org/2000/svg">
<path d="M34.4467 43.5167L31.5867 47.4767C34.3 49.8967 37.6733 51.1067 41.7067 51.1067C44.7867 51.0333 47.1333 50.24 48.7467 48.7233C50.3867 47.1833 51.2033 45.35 51.2033 43.2233C51.2033 41.1467 50.63 39.4333 49.48 38.09C48.3333 36.7467 46.4 35.67 43.6867 34.8633C41.44 34.18 39.8533 33.5567 38.92 32.9933C37.9933 32.4067 37.5267 31.6967 37.5267 30.8667C37.5267 30.11 37.9067 29.5 38.6633 29.0333C39.4233 28.5667 40.4367 28.3367 41.7067 28.3367C42.64 28.3367 43.6867 28.52 44.86 28.8867C46.0333 29.2033 47.0733 29.72 47.9767 30.4267L50.5433 26.43C48.2967 24.62 45.3133 23.7167 41.5967 23.7167C38.9333 23.7167 36.7467 24.4 35.0333 25.77C33.2733 27.1367 32.3933 28.8367 32.3933 30.8667C32.42 33.0167 33.1267 34.6933 34.52 35.89C35.94 37.09 37.9533 38.0667 40.57 38.8233C42.7467 39.5067 44.2267 40.19 45.0067 40.8767C45.367 41.1838 45.6555 41.5663 45.8519 41.9971C46.0483 42.4279 46.1478 42.8966 46.1433 43.37C46.1616 43.8035 46.0667 44.2343 45.868 44.6201C45.6693 45.0058 45.3736 45.3332 45.01 45.57C44.2267 46.1067 43.1 46.3767 41.6333 46.3767C39.24 46.4 36.8433 45.4467 34.4467 43.5167ZM16.0133 45.6433C15.2083 45.1362 14.5106 44.476 13.96 43.7L10.5133 46.5233C11.54 48.2567 12.8133 49.47 14.3267 50.1533C15.7433 50.7867 17.37 51.1067 19.2033 51.1067C20.2033 51.1067 21.2433 50.9467 22.32 50.63C23.4113 50.3043 24.4228 49.7549 25.29 49.0167C26.88 47.7467 27.71 45.6667 27.7833 42.7833V24.1567H22.8333V41.83C22.8333 43.5167 22.4533 44.7033 21.7 45.3867C20.94 46.0467 19.9867 46.3767 18.8367 46.3767C17.7367 46.3767 16.7967 46.1333 16.0133 45.6433ZM0 10C0 7.34784 1.05357 4.8043 2.92893 2.92893C4.8043 1.05357 7.34784 0 10 0H50C52.6522 0 55.1957 1.05357 57.0711 2.92893C58.9464 4.8043 60 7.34784 60 10V50C60 52.6522 58.9464 55.1957 57.0711 57.0711C55.1957 58.9464 52.6522 60 50 60H10C7.34784 60 4.8043 58.9464 2.92893 57.0711C1.05357 55.1957 0 52.6522 0 50V10ZM10 6.66667C9.11594 6.66667 8.2681 7.01786 7.64298 7.64298C7.01786 8.2681 6.66667 9.11594 6.66667 10V50C6.66667 50.8841 7.01786 51.7319 7.64298 52.357C8.2681 52.9821 9.11594 53.3333 10 53.3333H50C50.8841 53.3333 51.7319 52.9821 52.357 52.357C52.9821 51.7319 53.3333 50.8841 53.3333 50V10C53.3333 9.11594 52.9821 8.2681 52.357 7.64298C51.7319 7.01786 50.8841 6.66667 50 6.66667H10Z" fill="white"/>
</svg>
