<svg width="55" height="48" viewBox="0 0 55 48" fill="none" xmlns="http://www.w3.org/2000/svg">
<path d="M54.6675 1.43492C54.4487 1.05395 54.1334 0.737362 53.7533 0.517039C53.3732 0.296715 52.9418 0.180439 52.5025 0.179922L40.0775 0.169922H30.9475C30.5469 0.170799 30.1523 0.267742 29.7969 0.452616C29.4415 0.637491 29.1356 0.904905 28.905 1.23242L27.5075 3.22242L26.0975 1.22742C25.8671 0.900571 25.5615 0.633891 25.2064 0.449851C24.8514 0.265811 24.4574 0.169805 24.0575 0.169922H14.92L2.48746 0.234922C2.04811 0.236911 1.61704 0.35465 1.23768 0.576279C0.858319 0.797908 0.544066 1.1156 0.326576 1.49735C0.109086 1.87909 -0.00395908 2.31142 -0.00117033 2.75076C0.00161843 3.19011 0.120142 3.62097 0.342461 3.99992L25.3925 46.7649C25.6131 47.1411 25.9283 47.453 26.3068 47.6696C26.6853 47.8862 27.1139 48.0001 27.55 47.9999C27.987 48 28.4164 47.8856 28.7954 47.6681C29.1744 47.4505 29.4897 47.1374 29.71 46.7599L54.66 3.93992C54.881 3.55977 54.998 3.12815 54.9993 2.68843C55.0006 2.24871 54.8862 1.81639 54.6675 1.43492ZM22.7625 5.16992L25.475 9.00242C25.7055 9.32912 26.0111 9.59569 26.3661 9.77971C26.7211 9.96373 27.1151 10.0598 27.515 10.0599H27.5175C27.918 10.0588 28.3125 9.96181 28.6679 9.77695C29.0232 9.59209 29.3291 9.32479 29.56 8.99742L32.25 5.17492L35.6575 5.16992L27.5475 18.8049L19.36 5.16992H22.7625ZM27.5425 40.5449L6.84996 5.21242L13.525 5.17492L25.41 24.9699C25.6321 25.3397 25.9462 25.6457 26.3216 25.8582C26.6971 26.0706 27.1211 26.1823 27.5525 26.1824H27.5675C27.9998 26.1813 28.4245 26.0681 28.8 25.8538C29.1755 25.6395 29.489 25.3316 29.71 24.9599L41.48 5.16992L48.155 5.17742L27.5425 40.5449Z" fill="white"/>
</svg>
